<svg width="500" height="500" viewBox="0 0 500 500" fill="none" xmlns="http://www.w3.org/2000/svg">
<g clip-path="url(#clip0_86_816)">
<path d="M29.8984 446.04C41.9784 446.04 49.3384 440.12 49.3384 430.6C49.3384 420.6 40.8584 417.16 32.0584 415.16C24.8584 413.48 19.8184 412.6 19.8184 406.92C19.8184 402.12 24.0584 399 30.5384 399C36.5384 399 41.6584 402.04 44.3784 405.96C44.5384 406.2 48.2184 404.36 48.2184 401.4C48.2184 397.64 41.9784 392.2 30.4584 392.2C19.4184 392.2 11.8184 398.44 11.8184 407.24C11.8184 417.72 20.1384 420.52 28.1384 422.36C35.0184 423.96 41.0984 425.32 41.0984 431.16C41.0984 436.28 37.0184 439.24 29.8184 439.24C22.6984 439.24 17.1784 435.64 14.2184 431.32C13.9784 431 10.4584 433 10.4584 435.72C10.4584 439.96 17.4184 446.04 29.8984 446.04ZM81.7953 446.04C95.5553 446.04 102.355 437.8 102.355 433.96C102.355 430.12 97.3953 429.16 97.2353 429.56C95.0753 435.16 89.2353 438.6 82.2753 438.6C71.8753 438.6 64.2753 430.52 64.2753 419.08C64.2753 407.56 71.6353 399.64 82.1153 399.64C87.9553 399.64 93.7953 402.44 96.7553 407.64C96.9153 407.96 101.555 407 101.555 403.16C101.555 399.56 94.9953 392.2 82.0353 392.2C66.5153 392.2 55.7153 403.4 55.7153 419.24C55.7153 435 66.4353 446.04 81.7953 446.04ZM134.373 446.04C149.733 446.04 160.613 434.92 160.613 419.08C160.613 403.24 149.893 392.2 134.453 392.2C119.173 392.2 108.213 403.4 108.213 419.24C108.213 435 118.933 446.04 134.373 446.04ZM134.453 438.76C123.973 438.76 116.533 430.6 116.533 419.08C116.533 407.48 123.893 399.48 134.373 399.48C144.853 399.48 152.293 407.72 152.293 419.24C152.293 430.76 144.933 438.76 134.453 438.76ZM177.67 418.28V400.04H188.31C195.91 400.04 199.75 403.16 199.75 409.16C199.75 414.76 196.15 418.28 188.55 418.28H177.67ZM192.63 423.96C202.71 423.16 208.07 417.56 208.07 408.76C208.07 398.52 201.35 393.24 188.71 393.24H173.99C171.35 393.24 169.59 395.08 169.59 397.88V441.08C169.59 443.8 170.79 445.32 173.03 445.32H174.15C176.55 445.32 177.75 443.8 177.75 441.56V424.76H183.43L197.59 442.12C199.35 444.44 200.79 445.32 202.95 445.32C206.39 445.32 208.15 442.44 207.75 441.96L192.63 423.96ZM221.1 445H251.58C254.14 445 255.34 443.72 255.34 441.4V441C255.34 438.84 254.14 437.72 251.58 437.72H224.94V422.04H245.18C247.74 422.04 249.02 420.84 249.02 418.6V418.36C249.02 416.2 247.82 415.08 245.18 415.08H224.94V400.6H251.1C253.66 400.6 254.94 399.4 254.94 397.16V396.68C254.94 394.52 253.66 393.24 251.1 393.24H221.1C218.46 393.24 216.7 395.08 216.7 397.88V440.44C216.7 443.24 218.46 445 221.1 445ZM287.733 446.04C301.493 446.04 308.293 437.8 308.293 433.96C308.293 430.12 303.333 429.16 303.173 429.56C301.013 435.16 295.173 438.6 288.213 438.6C277.813 438.6 270.213 430.52 270.213 419.08C270.213 407.56 277.573 399.64 288.053 399.64C293.893 399.64 299.733 402.44 302.693 407.64C302.853 407.96 307.493 407 307.493 403.16C307.493 399.56 300.933 392.2 287.973 392.2C272.453 392.2 261.653 403.4 261.653 419.24C261.653 435 272.373 446.04 287.733 446.04ZM319.671 445.32H320.871C323.271 445.32 324.471 444.04 324.471 441.56V422.68H351.751V441.56C351.751 444.04 352.951 445.32 355.191 445.32H356.391C358.791 445.32 359.991 444.04 359.991 441.56V396.68C359.991 394.2 358.791 392.92 356.391 392.92H355.191C352.951 392.92 351.751 394.2 351.751 396.68V415.48H324.471V396.68C324.471 394.2 323.271 392.92 320.871 392.92H319.671C317.431 392.92 316.231 394.2 316.231 396.68V441.56C316.231 444.04 317.431 445.32 319.671 445.32ZM382.117 423.16L390.517 401.24L398.837 423.16H382.117ZM400.837 429.8L405.397 441.56C406.517 444.52 408.437 445.4 410.277 445.4C412.757 445.4 415.077 443.56 414.837 442.92L396.277 395.4C395.637 393.72 394.437 392.76 390.597 392.76C386.837 392.76 385.557 393.72 384.917 395.4L366.517 442.92C366.277 443.64 368.597 445.4 370.997 445.4C372.757 445.4 374.517 444.52 375.557 441.64L380.117 429.8H400.837ZM425.627 445.32H426.747C429.147 445.32 430.347 444.04 430.347 441.56V396.68C430.347 394.2 429.147 392.92 426.747 392.92H425.627C423.307 392.92 422.107 394.2 422.107 396.68V441.56C422.107 444.04 423.307 445.32 425.627 445.32ZM445.45 445.32H446.33C448.73 445.32 449.85 444.04 449.85 441.56V404.68L476.81 442.84C478.09 444.6 478.73 445.32 481.21 445.32H481.85C484.25 445.32 485.69 443.56 485.69 440.68V396.68C485.69 394.2 484.57 392.92 482.33 392.92H481.37C478.97 392.92 477.93 394.2 477.93 396.68V432.36L452.33 396.04C450.81 393.96 449.85 392.92 447.37 392.92H446.01C443.45 392.92 442.09 394.76 442.09 397.56V441.56C442.09 444.04 443.13 445.32 445.45 445.32Z" fill="#66CEF5"/>
<path d="M385.52 83.3785L252.399 247.53L180.349 174.936C176.459 171.018 174.273 165.703 174.273 160.161C174.273 154.619 176.459 149.303 180.349 145.384C184.238 141.466 189.513 139.265 195.014 139.265C200.515 139.265 205.789 141.466 209.679 145.384L252.378 187.5L385.563 83.3" fill="#28BEF3"/>
<path d="M290.998 98.4215L308.599 61.0197C291.436 53.6576 273.044 49.5811 254.378 49H253.52L254.79 90.3071C267.238 90.8944 279.49 93.6404 290.998 98.4215V98.4215Z" fill="#123841"/>
<path d="M141.285 194.774C141.661 183.066 143.944 171.498 148.042 160.524L110.169 143.953C100.976 167.621 97.9462 193.237 101.364 218.398C104.783 243.558 114.537 267.438 129.711 287.796L161.874 261.849C147.716 242.416 140.467 218.804 141.285 194.774V194.774Z" fill="#123841"/>
<path d="M257.208 306.301L256.881 347.625C275.795 346.739 294.365 342.235 311.584 334.359L293.115 297.371C281.754 302.403 269.604 305.425 257.208 306.301V306.301Z" fill="#123841"/>
<path d="M170.458 272.247L138.269 298.212C138.947 298.968 139.634 299.731 140.338 300.478C167.085 329.226 204.133 346.206 243.371 347.702L243.697 306.489C215.769 304.999 189.511 292.722 170.458 272.247V272.247Z" fill="#123841"/>
<path d="M241.321 90.4277L240.05 49.2139C213.919 50.8858 188.682 59.3761 166.853 73.8382C145.024 88.3003 127.366 108.23 115.637 131.642L153.545 148.229C162.08 131.946 174.612 118.1 189.966 107.989C205.32 97.878 222.991 91.8351 241.321 90.4277V90.4277Z" fill="#123841"/>
<path d="M398.598 207.817L357.324 206.958C355.939 224.128 350.476 240.719 341.391 255.354C332.305 269.989 319.859 282.244 305.086 291.102L323.58 328.134C333.686 322.335 343.086 315.382 351.589 307.416C379.454 281.475 396.283 245.817 398.598 207.817V207.817Z" fill="#123841"/>
<path d="M357.571 193.512L398.845 194.372C398.387 175.618 394.381 157.121 387.039 139.858L349.844 158.01C354.417 169.319 357.031 181.325 357.571 193.512Z" fill="#123841"/>
<path d="M252.576 247.262L252.017 187.236L384.51 83.3446" fill="url(#paint0_linear_86_816)"/>
</g>
<defs>
<linearGradient id="paint0_linear_86_816" x1="252.017" y1="165.303" x2="384.51" y2="165.303" gradientUnits="userSpaceOnUse">
<stop stop-color="#229AC5"/>
<stop offset="0.171" stop-color="#24A7D6"/>
<stop offset="0.396" stop-color="#26B4E6"/>
<stop offset="0.652" stop-color="#27BBF0"/>
<stop offset="1" stop-color="#28BEF3"/>
</linearGradient>
<clipPath id="clip0_86_816">
<rect width="500" height="500" fill="white"/>
</clipPath>
</defs>
</svg>
