<?xml version="1.0" encoding="UTF-8"?>
<svg id="Layer_1" xmlns="http://www.w3.org/2000/svg" xmlns:xlink="http://www.w3.org/1999/xlink" version="1.1" viewBox="0 0 500 500">
  <defs>
    <style>
      .st0 {
        fill: none;
      }

      .st1 {
        fill: url(#linear-gradient);
      }

      .st2 {
        fill: #123841;
      }

      .st3 {
        fill: #66cef5;
      }

      .st4 {
        fill: #28bef3;
      }

      .st5 {
        clip-path: url(#clippath);
      }
    </style>
    <clipPath id="clippath">
      <rect class="st0" x="109.6" y="114.5" width="271" height="271"/>
    </clipPath>
    <linearGradient id="linear-gradient" x1="246.2" y1="602.1" x2="318" y2="602.1" gradientTransform="translate(0 -398)" gradientUnits="userSpaceOnUse">
      <stop offset="0" stop-color="#229ac5"/>
      <stop offset=".2" stop-color="#24a7d6"/>
      <stop offset=".4" stop-color="#26b4e6"/>
      <stop offset=".7" stop-color="#27bbf0"/>
      <stop offset="1" stop-color="#28bef3"/>
    </linearGradient>
  </defs>
  <g class="st5">
    <g>
      <path class="st3" d="M125.8,356.3c6.5,0,10.5-3.2,10.5-8.4s-4.6-7.3-9.4-8.4c-3.9-.9-6.6-1.4-6.6-4.5s2.3-4.3,5.8-4.3,6,1.6,7.5,3.8c0,.1,2.1-.9,2.1-2.5s-3.4-5-9.6-5-10.1,3.4-10.1,8.2,4.5,7.2,8.8,8.2c3.7.9,7,1.6,7,4.8s-2.2,4.4-6.1,4.4-6.9-2-8.5-4.3c0-.2-2,.9-2,2.4,0,2.3,3.8,5.6,10.5,5.6h0ZM153.9,356.3c7.5,0,11.1-4.5,11.1-6.5s-2.7-2.6-2.8-2.4c-1.2,3-4.3,4.9-8.1,4.9-5.6,0-9.8-4.4-9.8-10.6s4-10.5,9.7-10.5,6.3,1.5,7.9,4.3c0,.2,2.6-.3,2.6-2.4s-3.6-5.9-10.6-5.9-14.3,6.1-14.3,14.7,5.8,14.5,14.1,14.5h.2ZM182.4,356.3c8.3,0,14.2-6,14.2-14.6s-5.8-14.6-14.2-14.6-14.2,6.1-14.2,14.7,5.8,14.5,14.2,14.5ZM182.5,352.3c-5.7,0-9.7-4.4-9.7-10.7s4-10.6,9.7-10.6,9.7,4.5,9.7,10.7-4,10.6-9.7,10.6ZM205.9,341.2v-9.9h5.8c4.1,0,6.2,1.7,6.2,4.9s-2,4.9-6.1,4.9h-5.9ZM214,344.3c5.5-.4,8.4-3.5,8.4-8.2s-3.6-8.4-10.5-8.4h-8c-1.4,0-2.4,1-2.4,2.5v23.4c0,1.5.7,2.3,1.9,2.3h.6c1.3,0,2-.8,2-2v-9.1h3.1l7.7,9.4c1,1.3,1.7,1.7,2.9,1.7,1.9,0,2.8-1.6,2.6-1.8l-8.2-9.8h-.1ZM229.4,355.7h16.5c1.4,0,2-.7,2-2v-.2c0-1.2-.7-1.8-2-1.8h-14.4v-8.5h11c1.4,0,2.1-.7,2.1-1.9h0c0-1.3-.7-1.9-2.1-1.9h-11v-7.8h14.2c1.4,0,2.1-.7,2.1-1.9v-.3c0-1.2-.7-1.9-2.1-1.9h-16.3c-1.4,0-2.4,1-2.4,2.5v23.1c0,1.5,1,2.5,2.4,2.5h0ZM265.5,356.3c7.5,0,11.1-4.5,11.1-6.5s-2.7-2.6-2.8-2.4c-1.2,3-4.3,4.9-8.1,4.9-5.6,0-9.8-4.4-9.8-10.6s4-10.5,9.7-10.5,6.3,1.5,7.9,4.3c0,.2,2.6-.3,2.6-2.4s-3.6-5.9-10.6-5.9-14.3,6.1-14.3,14.7,5.8,14.5,14.1,14.5h.2ZM282.9,355.9h.7c1.3,0,2-.7,2-2v-10.2h14.8v10.2c0,1.3.7,2,1.9,2h.7c1.3,0,2-.7,2-2v-24.3c0-1.3-.7-2-2-2h-.7c-1.2,0-1.9.7-1.9,2v10.2h-14.8v-10.2c0-1.3-.7-2-2-2h-.7c-1.2,0-1.9.7-1.9,2v24.3c0,1.3.7,2,1.9,2ZM316.7,343.9l4.6-11.9,4.5,11.9h-9.1ZM326.8,347.5l2.5,6.4c.6,1.6,1.6,2.1,2.6,2.1s2.6-1,2.5-1.3l-10.1-25.8c-.3-.9-1-1.4-3.1-1.4s-2.7.5-3.1,1.4l-10,25.8c-.1.4,1.1,1.3,2.4,1.3s1.9-.5,2.5-2l2.5-6.4h11.3ZM340.3,355.9h.6c1.3,0,2-.7,2-2v-24.3c0-1.3-.7-2-2-2h-.6c-1.3,0-1.9.7-1.9,2v24.3c0,1.3.7,2,1.9,2ZM351,355.9h.5c1.3,0,1.9-.7,1.9-2v-20l14.6,20.7c.7,1,1,1.3,2.4,1.3h.3c1.3,0,2.1-1,2.1-2.5v-23.8c0-1.3-.6-2-1.8-2h-.5c-1.3,0-1.9.7-1.9,2v19.3l-13.9-19.7c-.8-1.1-1.3-1.7-2.7-1.7h-.7c-1.4,0-2.1,1-2.1,2.5v23.8c0,1.3.6,2,1.8,2h0Z"/>
      <path class="st4" d="M318.5,159.7l-72.2,89-39.1-39.3c-2.1-2.1-3.3-5-3.3-8s1.2-5.9,3.3-8,5-3.3,7.9-3.3,5.8,1.2,7.9,3.3l23.1,22.8,72.2-56.5"/>
      <path class="st2" d="M267.3,167.8l9.5-20.3c-9.3-4-19.3-6.2-29.4-6.5h-.5l.7,22.4c6.7.3,13.4,1.8,19.6,4.4h.1Z"/>
      <path class="st2" d="M186.2,220.1c.2-6.3,1.4-12.6,3.7-18.6l-20.5-9c-5,12.8-6.6,26.7-4.8,40.3,1.9,13.6,7.1,26.6,15.4,37.6l17.4-14.1c-7.7-10.5-11.6-23.3-11.2-36.4h0v.2Z"/>
      <path class="st2" d="M249,280.5l-.2,22.4c10.3-.5,20.3-2.9,29.6-7.2l-10-20c-6.2,2.7-12.7,4.4-19.5,4.8h.1Z"/>
      <path class="st2" d="M202,262.1l-17.4,14.1c.4.4.7.8,1.1,1.2,14.5,15.6,34.6,24.8,55.8,25.6l.2-22.3c-15.1-.8-29.4-7.5-39.7-18.6h0Z"/>
      <path class="st2" d="M240.4,163.5l-.7-22.3c-14.2.9-27.8,5.5-39.7,13.3-11.8,7.8-21.4,18.6-27.8,31.3l20.5,9c4.6-8.8,11.4-16.3,19.7-21.8s17.9-8.8,27.8-9.5h.2Z"/>
      <path class="st2" d="M325.6,227.1l-22.4-.5c-.8,9.3-3.7,18.3-8.6,26.2-4.9,7.9-11.7,14.6-19.7,19.4l10,20.1c5.5-3.1,10.6-6.9,15.2-11.2,15.1-14.1,24.2-33.4,25.5-54h0Z"/>
      <path class="st2" d="M303.4,219.4l22.4.5c-.2-10.2-2.4-20.2-6.4-29.5l-20.2,9.8c2.5,6.1,3.9,12.6,4.2,19.2Z"/>
      <path class="st1" d="M246.5,248.5l-.3-32.5,71.8-56.3"/>
    </g>
  </g>
</svg>